<?xml version="1.0" standalone="no"?>
<!DOCTYPE svg PUBLIC "-//W3C//DTD SVG 20010904//EN"
 "http://www.w3.org/TR/2001/REC-SVG-20010904/DTD/svg10.dtd">
<svg version="1.0" xmlns="http://www.w3.org/2000/svg"
 width="256.000000pt" height="256.000000pt" viewBox="0 0 256.000000 256.000000"
 preserveAspectRatio="xMidYMid meet">
<metadata>
Created by potrace 1.11, written by Peter Selinger 2001-2013
</metadata>
<g transform="translate(0.000000,256.000000) scale(0.100000,-0.100000)"
fill="#000000" stroke="none">
<path d="M1247 2024 c-1 -1 -47 -5 -102 -9 -55 -4 -106 -8 -115 -10 -8 -1 -35
-6 -60 -10 -25 -4 -54 -9 -65 -12 -11 -2 -33 -6 -50 -9 -108 -19 -320 -108
-434 -182 -160 -105 -319 -312 -359 -467 -25 -94 -32 -168 -20 -203 4 -13 4
-21 -1 -18 -13 8 36 -168 60 -216 88 -174 248 -301 429 -343 74 -17 221 -13
294 7 219 60 397 238 450 448 l14 55 11 -45 c33 -123 85 -214 174 -301 69 -67
140 -111 237 -145 65 -23 91 -27 195 -27 106 -1 129 2 200 27 176 60 322 199
386 366 65 167 54 368 -27 526 -115 221 -300 381 -542 468 -112 40 -218 65
-341 81 -103 13 -326 26 -334 19z m317 -311 l28 -9 -42 -28 c-106 -70 -194
-189 -239 -325 l-27 -79 -12 51 c-29 123 -133 275 -241 350 l-46 32 70 11 c80
13 465 11 509 -3z m-834 -235 c37 -1 141 -61 176 -101 56 -64 78 -120 80 -207
4 -131 -59 -241 -170 -295 -135 -66 -271 -46 -374 56 -150 149 -119 401 62
507 51 30 132 50 176 45 19 -2 42 -5 50 -5z m1292 -18 c74 -27 140 -87 175
-158 24 -49 28 -69 28 -142 0 -102 -20 -152 -86 -222 -63 -67 -139 -99 -236
-100 -87 0 -150 27 -219 96 -88 88 -117 190 -87 306 32 127 134 219 263 239
63 9 98 5 162 -19z"/>
</g>
</svg>
