<?xml version="1.0" encoding="utf-8"?>
<!-- Generator: Adobe Illustrator 16.0.0, SVG Export Plug-In . SVG Version: 6.00 Build 0)  -->
<!DOCTYPE svg PUBLIC "-//W3C//DTD SVG 1.1//EN" "http://www.w3.org/Graphics/SVG/1.1/DTD/svg11.dtd">
<svg version="1.1"
	 id="Layer_1" xmlns:rdf="http://www.w3.org/1999/02/22-rdf-syntax-ns#" xmlns:dc="http://purl.org/dc/elements/1.1/" xmlns:svg="http://www.w3.org/2000/svg" xmlns:cc="http://creativecommons.org/ns#"
	 xmlns="http://www.w3.org/2000/svg" xmlns:xlink="http://www.w3.org/1999/xlink" x="0px" y="0px" width="1024px" height="1024px"
	 viewBox="0 0 1024 1024" enable-background="new 0 0 1024 1024" xml:space="preserve">
<g transform="matrix(1.3333333,0,0,-1.3333333,0,133.33333)">
	<g>
		<g>
			<defs>
				<rect id="SVGID_1_" x="-25.6" y="-693.6" width="819.2" height="819.2"/>
			</defs>
			<clipPath id="SVGID_2_">
				<use xlink:href="#SVGID_1_"  overflow="visible"/>
			</clipPath>
			<g clip-path="url(#SVGID_2_)">
				<g transform="translate(79.6052,64.007)">
					<path fill="#110F0D" d="M486.289-261.948l-95.834,95.834l59.456,59.462l95.834-95.84L486.289-261.948z M200.169-548.068
						l-9.48,22.119l259.222,259.227l15.802-15.802L200.169-548.068z M62.095-590.303L89-477.332l26.223-11.231v-34.062
						c0-8.036,6.519-14.556,14.555-14.556h34.063l11.231-26.222L62.095-590.303L62.095-590.303z M406.257-223.069l23.077-23.077
						L167.403-508.076h-23.077v23.077L406.257-223.069z M369.879-186.69l15.802-15.802L126.447-461.714l-22.118,9.48L369.879-186.69
						z M576.612-192.201L460.196-75.791c-5.683,5.683-14.887,5.683-20.576,0L68.712-446.698c-1.892-1.825-3.305-4.197-3.987-6.93
						c-0.006-0.006-0.006-0.019-0.006-0.025c-0.012-0.05-0.018-0.092-0.037-0.135L28.315-606.565
						c-1.173-4.915,0.289-10.088,3.865-13.658c2.752-2.764,6.469-4.264,10.285-4.264c1.124,0,2.255,0.129,3.367,0.4l152.789,36.372
						c0.025,0.006,0.049,0.013,0.068,0.019c2.777,0.675,5.173,2.101,7.022,4.012l370.901,370.907
						C582.296-207.094,582.296-197.884,576.612-192.201"/>
				</g>
			</g>
		</g>
	</g>
</g>
</svg>
