<?xml version="1.0" encoding="utf-8"?>
<!-- Generator: Adobe Illustrator 16.0.0, SVG Export Plug-In . SVG Version: 6.00 Build 0)  -->
<!DOCTYPE svg PUBLIC "-//W3C//DTD SVG 1.1//EN" "http://www.w3.org/Graphics/SVG/1.1/DTD/svg11.dtd">
<svg version="1.1" id="Layer_1" xmlns="http://www.w3.org/2000/svg" xmlns:xlink="http://www.w3.org/1999/xlink" x="0px" y="0px"
	 width="1024px" height="1024px" viewBox="0 0 1024 1024" enable-background="new 0 0 1024 1024" xml:space="preserve">
<g>
	<g>
		<path fill="#231F20" d="M511.999,708.329"/>
		<g>
			<path fill="#231F20" d="M219.836,489.725H148.35c-9.325,0-17.613-8.287-17.613-17.612s8.288-17.613,17.613-17.613h71.486
				c9.325,0,17.613,8.289,17.613,17.613S230.197,489.725,219.836,489.725z"/>
			<path fill="#231F20" d="M804.164,467.968h71.484c9.325,0,17.614-8.287,17.614-17.612s-8.289-17.613-17.614-17.613h-71.484
				c-9.325,0-17.615,8.289-17.615,17.613S794.839,467.968,804.164,467.968z"/>
			<path fill="#231F20" d="M260.242,318.778c-3.108,0-6.217-1.037-8.289-2.071l-62.162-35.227
				c-8.289-5.18-11.396-15.541-6.216-23.828c5.18-8.289,15.541-11.397,23.829-6.217l62.163,35.226
				c8.288,5.18,11.396,15.541,6.216,23.828C271.638,315.671,266.458,318.778,260.242,318.778z"/>
			<path fill="#231F20" d="M369.026,209.994c-6.217,0-11.396-3.107-15.541-8.288l-35.226-62.162
				c-5.18-8.288-2.072-18.649,6.216-23.829c8.288-5.181,18.649-2.073,23.829,6.216l35.226,62.163
				c5.18,8.288,2.072,18.648-6.216,23.828C375.243,208.958,372.134,209.994,369.026,209.994z"/>
			<path fill="#231F20" d="M518.216,169.588c-9.324,0-17.613-8.288-17.613-17.613V80.49c0-9.325,8.289-17.613,17.613-17.613
				c9.325,0,17.612,8.289,17.612,17.613v71.486C535.828,162.337,527.541,169.588,518.216,169.588z"/>
			<path fill="#231F20" d="M667.406,209.994c-3.109,0-6.218-1.036-8.289-2.072c-8.288-5.18-11.396-15.541-6.216-23.829
				l35.224-62.162c5.183-8.289,15.542-11.397,23.829-6.216c8.29,5.18,11.397,15.541,6.218,23.829l-35.227,62.162
				C678.802,206.887,672.586,209.994,667.406,209.994z"/>
			<path fill="#231F20" d="M776.189,318.778c-6.217,0-11.396-3.107-15.539-8.288c-5.183-8.289-2.072-18.649,6.215-23.829
				l62.162-35.225c8.288-5.181,18.649-2.072,23.83,6.216c5.18,8.289,2.072,18.648-6.218,23.829l-62.163,35.225
				C782.407,317.742,779.297,318.778,776.189,318.778z"/>
			<path fill="#231F20" d="M838.353,652.384c-3.107,0-6.218-1.036-8.29-2.072l-62.16-35.226c-8.29-5.181-11.397-15.54-6.217-23.829
				c5.18-8.288,15.539-11.396,23.829-6.216l62.162,35.226c8.288,5.18,11.396,15.54,6.215,23.829
				C849.75,649.275,843.532,652.384,838.353,652.384z"/>
			<path fill="#231F20" d="M198.08,652.384c-6.217,0-11.396-3.108-15.541-8.288c-5.18-8.289-2.072-18.649,6.216-23.829
				l62.162-35.226c8.289-5.18,18.649-2.072,23.829,6.216c5.18,8.289,2.072,18.649-6.217,23.829l-62.162,35.226
				C204.295,651.348,201.188,652.384,198.08,652.384z"/>
		</g>
		<g>
			<path fill="#231F20" d="M574.162,748.735H448.801c-33.153-1.036-42.478-33.153-45.586-47.658
				c-5.18-19.685-13.468-49.729-42.478-81.847c-64.234-71.486-81.847-174.054-45.586-254.867
				c33.153-73.559,104.64-116.036,197.884-116.036c93.243,0,164.729,42.477,197.884,116.036
				c36.261,80.811,17.611,183.38-45.586,254.867c-29.01,32.117-37.298,62.162-42.479,81.847
				C616.641,715.582,608.351,746.663,574.162,748.735L574.162,748.735z M456.053,696.934h111.892
				c1.037-3.108,2.073-7.254,3.109-9.324c6.215-21.757,17.611-62.163,53.873-103.604c50.766-56.982,65.27-136.758,37.299-198.92
				c-24.867-53.873-78.74-84.955-150.228-84.955c-71.486,0-126.396,31.082-150.226,84.955
				c-27.973,62.163-12.432,141.938,37.297,198.92c37.298,41.441,47.659,80.812,53.875,102.567
				C453.981,689.682,455.017,693.825,456.053,696.934z"/>
			<path fill="#231F20" d="M583.486,820.222H448.801c-14.504,0-25.901-11.397-25.901-25.901c0-14.505,11.396-25.9,25.901-25.9
				h134.685c14.505,0,25.901,11.396,25.901,25.9C609.388,808.824,597.991,820.222,583.486,820.222z"/>
			<path fill="#231F20" d="M578.307,887.564h-123.29c-14.504,0-25.901-11.397-25.901-25.901c0-14.505,11.396-25.9,25.901-25.9
				h123.29c14.505,0,25.9,11.396,25.9,25.9C604.207,876.167,591.774,887.564,578.307,887.564z"/>
			<path fill="#231F20" d="M588.666,920.718c0,17.612-29.009,39.369-69.415,40.405c-1.035,0-2.072,0-3.107,0s-2.072,0-3.107,0
				c-40.406-1.036-69.416-27.973-69.416-40.405c0-14.504,11.396-15.54,25.901-15.54h92.208
				C576.234,904.142,588.666,906.214,588.666,920.718z"/>
		</g>
	</g>
	<path fill="#231F20" d="M622.855,647.203c-6.215,0-12.433-3.107-16.576-8.287c-11.396-14.505-30.045-25.902-42.478-34.19
		c-4.145-2.072-7.252-5.18-10.36-6.216c-22.793-15.541-29.009-45.586-23.828-66.307c1.035-5.18,4.143-12.432,7.252-19.685
		c7.253-16.577,16.576-40.406,16.576-63.199c0-16.577-5.18-44.55-42.478-44.55c-36.262,0-42.478,27.974-42.478,44.55
		c0,22.793,9.324,46.622,16.577,63.199c3.108,8.287,6.217,14.505,7.251,19.685c5.181,20.721-2.072,49.729-23.828,66.307
		c-2.073,2.072-6.217,4.144-10.361,6.216c-11.396,7.252-30.045,18.649-41.442,33.153c-7.252,9.325-20.721,10.361-29.009,3.107
		c-9.324-7.252-10.36-20.72-3.107-29.009c15.54-19.685,37.297-33.152,51.802-41.44c3.108-2.073,6.216-4.144,8.288-5.181
		c7.252-5.181,9.325-16.576,8.288-22.792c-1.036-2.073-3.108-8.289-5.18-13.469c-8.288-18.649-19.685-47.658-19.685-79.776
		c0-50.766,33.153-85.991,83.919-85.991s83.92,34.188,83.92,85.991c0,31.082-12.434,60.09-19.686,79.776
		c-2.072,5.18-5.18,11.396-5.18,13.469c-1.035,6.216,1.036,17.611,8.288,22.792c2.072,1.037,5.181,3.107,8.288,5.181
		c14.505,9.324,36.262,22.793,51.803,43.513c7.252,9.325,6.216,21.757-3.109,29.01C631.145,645.132,627,647.203,622.855,647.203z"/>
</g>
</svg>
