<?xml version="1.0" encoding="utf-8"?>
<!-- Generator: Adobe Illustrator 16.0.0, SVG Export Plug-In . SVG Version: 6.00 Build 0)  -->
<!DOCTYPE svg PUBLIC "-//W3C//DTD SVG 1.1//EN" "http://www.w3.org/Graphics/SVG/1.1/DTD/svg11.dtd">
<svg version="1.1" id="Layer_1" xmlns="http://www.w3.org/2000/svg" xmlns:xlink="http://www.w3.org/1999/xlink" x="0px" y="0px"
	 width="669.083px" height="669.083px" viewBox="0 283.602 669.083 669.083" enable-background="new 0 283.602 669.083 669.083"
	 xml:space="preserve">
<path d="M507.105,424.088c32.769,0,58.982-27.033,58.982-59.802c0-32.768-26.214-59.801-58.982-59.801
	c-32.768,0-58.982,27.034-58.982,59.801C448.123,397.055,475.157,424.088,507.105,424.088z M507.105,336.434
	c15.565,0,27.853,13.107,27.853,28.672c0,15.565-12.287,28.672-27.853,28.672c-15.564,0-27.853-13.107-27.853-28.672
	C479.253,349.541,491.541,336.434,507.105,336.434z M158.946,809.112c-32.768,0-58.982,27.033-58.982,59.801
	c0,32.769,26.214,59.802,58.982,59.802s58.982-27.033,58.982-59.802C217.928,836.146,191.714,809.112,158.946,809.112z
	 M158.946,896.767c-15.565,0-27.853-13.107-27.853-28.672c0-15.565,12.288-28.672,27.853-28.672
	c15.564,0,27.853,13.106,27.853,28.672C186.798,883.659,174.51,896.767,158.946,896.767z M219.566,546.148l31.949-31.948
	l-31.949-31.949c-5.734-5.734-5.734-15.564,0-22.118c5.734-5.734,15.565-5.734,22.118,0l31.949,31.949l31.949-31.949
	c5.734-5.734,15.564-5.734,22.118,0c5.734,5.734,5.734,15.564,0,22.118L295.752,514.2l31.949,31.948
	c5.734,5.734,5.734,15.565,0,22.119c-3.277,3.276-7.373,4.915-10.649,4.915c-4.096,0-8.192-1.639-10.65-4.915l-31.949-31.949
	l-31.949,31.949c-3.277,3.276-7.373,4.915-10.649,4.915s-8.192-1.639-10.65-4.915C213.832,562.533,213.832,552.702,219.566,546.148z
	 M561.173,728.011l-31.949,31.949l31.949,31.949c5.734,5.734,5.734,15.564,0,22.118c-3.276,3.276-7.373,4.915-10.649,4.915
	c-4.097,0-8.192-1.639-10.649-4.915l-31.949-31.949l-31.948,31.949c-3.277,3.276-7.373,4.915-10.65,4.915
	c-4.096,0-8.191-1.639-10.649-4.915c-5.734-5.734-5.734-15.564,0-22.118l31.949-31.949l-31.949-31.949
	c-5.734-5.734-5.734-15.564,0-22.118c5.734-5.734,15.564-5.734,22.118,0l31.949,31.949l31.948-31.949
	c5.734-5.734,15.565-5.734,22.119,0C566.907,711.627,566.907,721.457,561.173,728.011z M380.13,806.654l-31.949,31.949
	l31.949,31.948c5.734,5.734,5.734,15.565,0,22.119c-3.277,3.276-7.373,4.915-10.649,4.915c-4.097,0-8.192-1.639-10.65-4.915
	l-31.948-31.949l-31.949,31.949c-3.277,3.276-7.373,4.915-10.65,4.915c-4.096,0-8.192-1.639-10.649-4.915
	c-5.734-5.735-5.734-15.565,0-22.119l31.949-31.948l-31.949-31.949c-5.734-5.734-5.734-15.564,0-22.118
	c5.734-5.734,15.564-5.734,22.118,0l31.949,31.948l31.949-31.948c5.734-5.734,15.564-5.734,22.118,0
	C385.864,791.09,385.864,800.101,380.13,806.654z M571.003,542.053c-3.276,3.276-7.372,4.915-10.649,4.915
	c-4.096,0-8.191-1.638-10.649-4.915l-26.215-26.215v34.407c0,66.354-54.066,120.422-121.241,120.422H264.623
	c-49.971,0-90.112,40.141-90.112,89.293c0,8.192-6.553,15.564-15.564,15.564c-8.192,0-15.565-6.553-15.565-15.564
	c0-66.355,54.067-120.423,121.242-120.423h137.625c49.972,0,90.112-40.141,90.112-89.292v-34.407l-26.215,26.215
	c-3.276,3.276-7.372,4.915-10.649,4.915c-4.096,0-8.191-1.638-10.649-4.915c-5.734-5.734-5.734-15.564,0-22.118l52.429-52.429
	c5.734-5.734,15.564-5.734,22.118,0l52.429,52.429C576.737,525.669,576.737,535.499,571.003,542.053z"/>
</svg>
