<?xml version="1.0" encoding="utf-8"?>
<!-- Generator: Adobe Illustrator 16.0.0, SVG Export Plug-In . SVG Version: 6.00 Build 0)  -->
<!DOCTYPE svg PUBLIC "-//W3C//DTD SVG 1.1//EN" "http://www.w3.org/Graphics/SVG/1.1/DTD/svg11.dtd">
<svg version="1.1" id="Layer_1" xmlns="http://www.w3.org/2000/svg" xmlns:xlink="http://www.w3.org/1999/xlink" x="0px" y="0px"
	 width="1024px" height="1024px" viewBox="0 0 1024 1024" enable-background="new 0 0 1024 1024" xml:space="preserve">
<g transform="translate(0.000000,700.000000) scale(0.100000,-0.100000)">
	<path d="M3358.603,6117.045l-48.267-48.262v-684.165v-684.165l48.267-48.262c42.583-42.578,56.772-48.257,122.075-48.257
		c65.283,0,79.487,5.679,122.07,48.257l48.252,48.262v684.165v684.165l-48.252,48.262c-42.583,42.583-56.787,48.262-122.07,48.262
		C3415.376,6165.307,3401.186,6159.628,3358.603,6117.045z"/>
	<path d="M6594.902,6117.045l-48.262-48.262v-684.165v-684.165l48.262-48.262c42.578-42.578,56.777-48.257,122.07-48.257
		s79.492,5.679,122.07,48.257l48.262,48.262v684.165v684.165l-48.262,48.262c-42.578,42.583-56.777,48.262-122.07,48.262
		S6637.48,6159.628,6594.902,6117.045z"/>
	<path d="M3991.665,5512.373v-170.332h1107.158h1107.153v170.332v170.332H5098.823H3991.665V5512.373z"/>
	<path d="M7227.968,5512.373v-170.332h560.683c475.508,0,569.18-2.847,614.609-22.715c66.719-26.968,124.902-82.324,163.242-154.722
		l31.211-56.768l4.258-3449.223c2.852-2452.773-1.406-3467.656-11.348-3513.085c-22.715-92.266-73.809-163.242-151.875-208.652
		l-68.145-39.766H5097.397H1824.194l-69.551,42.598c-42.583,26.953-85.161,69.551-112.134,112.129l-42.583,69.551l-4.258,3457.734
		c-4.263,3860.854-11.357,3555.678,96.519,3663.554c95.107,95.107,127.749,99.365,740.947,99.365h536.538v163.228v163.237h-587.642
		c-661.455,0-681.328-2.837-837.466-106.46c-141.938-93.677-244.141-244.141-278.208-410.215
		c-9.937-49.678-12.773-1183.799-11.353-3592.573l4.258-3520.195l32.646-80.918c69.551-173.164,211.499-319.355,371.89-384.648
		l78.071-31.23l3329.98-4.258c3212.172-2.832,3334.243-2.832,3415.161,22.715c160.391,49.668,308.008,173.164,381.816,317.949
		c80.918,160.391,76.66-75.234,76.66,3730.263c0,3826.782,5.664,3576.967-79.492,3734.516
		c-48.262,86.592-173.184,211.499-259.766,259.761c-139.102,75.234-185.938,79.492-806.23,79.492h-572.031V5512.373z"/>
	<path d="M2103.823,3525.166v-809.077h809.082h809.072v809.077v809.077h-809.072h-809.082V3525.166z M3395.503,3532.265v-475.512
		H2920h-475.513v475.512v475.508H2920h475.503V3532.265z"/>
	<path d="M4318.139,3525.166v-809.077h809.067h809.082v809.077v809.077h-809.082h-809.067V3525.166z M5595.625,3532.265v-475.512
		h-468.418h-468.403v475.512v475.508h468.403h468.418V3532.265z"/>
	<path d="M6532.46,3525.166v-809.077h809.063h809.082v809.077v809.077h-809.082H6532.46V3525.166z M7809.94,3532.265v-475.512
		h-475.507h-475.527v475.512v475.508h475.527h475.507V3532.265z"/>
	<path d="M2103.823,1410.215V601.133h809.082h809.072v809.082v809.077h-809.072h-809.082V1410.215z M3395.503,1403.105V927.607H2920
		h-475.513v475.498v475.522H2920h475.503V1403.105z"/>
	<path d="M4318.139,1410.215V601.133h809.067h809.082v809.082v809.077h-809.082h-809.067V1410.215z M5595.625,1403.105V927.607
		h-468.418h-468.403v475.498v475.522h468.403h468.418V1403.105z"/>
	<path d="M6532.46,1410.215V601.133h809.063h809.082v809.082v809.077h-809.082H6532.46V1410.215z M7809.94,1403.105V927.607
		h-475.507h-475.527v475.498v475.522h475.527h475.507V1403.105z"/>
	<path d="M2103.823-676.347v-809.082h809.082h809.072v809.082v809.082h-809.072h-809.082V-676.347z M3395.503-683.437v-475.527H2920
		h-475.513v475.527v475.508H2920h475.503V-683.437z"/>
	<path d="M4318.139-676.347v-809.082h809.067h809.082v809.082v809.082h-809.082h-809.067V-676.347z M5595.625-683.437v-475.527
		h-468.418h-468.403v475.527v475.508h468.403h468.418V-683.437z"/>
	<path d="M6532.46-676.347v-809.082h809.063h809.082v809.082v809.082h-809.082H6532.46V-676.347z M7809.94-683.437v-475.527
		h-475.507h-475.527v475.527v475.508h475.527h475.507V-683.437z"/>
</g>
</svg>
